<svg width="37" height="38" viewBox="0 0 37 38" fill="none" xmlns="http://www.w3.org/2000/svg">
<g clip-path="url(#clip0_85_48)">
<path d="M25.5416 0.778687H11.7916C5.46429 0.778687 0.333252 5.85298 0.333252 12.1103V25.7082C0.333252 31.9655 5.46429 37.0398 11.7916 37.0398H25.5416C31.8689 37.0398 36.9999 31.9655 36.9999 25.7082V12.1103C36.9999 5.85298 31.8689 0.778687 25.5416 0.778687ZM33.5624 25.7082C33.5624 30.0822 29.9645 33.6403 25.5416 33.6403H11.7916C7.36867 33.6403 3.77075 30.0822 3.77075 25.7082V12.1103C3.77075 7.73629 7.36867 4.17817 11.7916 4.17817H25.5416C29.9645 4.17817 33.5624 7.73629 33.5624 12.1103V25.7082Z" fill="white"/>
<path d="M18.6666 9.84399C13.6043 9.84399 9.49994 13.903 9.49994 18.9093C9.49994 23.9156 13.6043 27.9745 18.6666 27.9745C23.7289 27.9745 27.8333 23.9156 27.8333 18.9093C27.8333 13.903 23.7289 9.84399 18.6666 9.84399ZM18.6666 24.5751C15.5087 24.5751 12.9374 22.0323 12.9374 18.9093C12.9374 15.784 15.5087 13.2435 18.6666 13.2435C21.8245 13.2435 24.3958 15.784 24.3958 18.9093C24.3958 22.0323 21.8245 24.5751 18.6666 24.5751Z" fill="white"/>
<path d="M28.5199 10.372C29.194 10.372 29.7405 9.8312 29.7405 9.16406C29.7405 8.49693 29.194 7.95612 28.5199 7.95612C27.8457 7.95612 27.2993 8.49693 27.2993 9.16406C27.2993 9.8312 27.8457 10.372 28.5199 10.372Z" fill="white"/>
</g>
<defs>
<clipPath id="clip0_85_48">
<rect width="36.6667" height="36.2611" fill="white" transform="translate(0.333252 0.778687)"/>
</clipPath>
</defs>
</svg>
