<svg width="20" height="20" viewBox="0 0 20 20" fill="none" xmlns="http://www.w3.org/2000/svg">
<g clip-path="url(#clip0_1_927)">
<path d="M8.39819 0.805664C6.93856 0.805664 5.58407 1.17057 4.33472 1.90039C3.12248 2.61784 2.15763 3.58268 1.44019 4.79492C0.710368 6.04427 0.345459 7.39567 0.345459 8.84912C0.345459 10.3026 0.710368 11.654 1.44019 12.9033C2.15763 14.1156 3.12248 15.0804 4.33472 15.7979C5.58407 16.5277 6.93547 16.8926 8.38892 16.8926C9.84237 16.8926 11.1938 16.5277 12.4431 15.7979C13.6554 15.0804 14.6202 14.1156 15.3376 12.9033C16.0675 11.654 16.4324 10.3026 16.4324 8.84912C16.4324 7.39567 16.0675 6.04427 15.3376 4.79492C14.6202 3.58268 13.6554 2.61784 12.4431 1.90039C11.1938 1.17057 9.84546 0.805664 8.39819 0.805664ZM8.39819 2.95801C9.462 2.95801 10.4578 3.22396 11.3855 3.75586C12.2638 4.27539 12.9688 4.98047 13.5007 5.87109C14.0326 6.78646 14.2986 7.77913 14.2986 8.84912C14.2986 9.91911 14.0326 10.918 13.5007 11.8457C12.9688 12.724 12.2638 13.429 11.3855 13.9609C10.4578 14.4928 9.4589 14.7588 8.38892 14.7588C7.31893 14.7588 6.32625 14.4928 5.41089 13.9609C4.52026 13.429 3.81519 12.724 3.29565 11.8457C2.76375 10.918 2.4978 9.91911 2.4978 8.84912C2.4978 7.77913 2.76375 6.78646 3.29565 5.87109C3.81519 4.98047 4.52026 4.27539 5.41089 3.75586C6.32625 3.22396 7.32202 2.95801 8.39819 2.95801ZM13.9832 12.9219L12.4617 14.4434L17.824 19.8057L19.3455 18.2842L13.9832 12.9219Z" fill="#BDBDBD"/>
</g>
<defs>
<clipPath id="clip0_1_927">
<rect width="19" height="19" fill="white" transform="matrix(1 0 0 -1 0.345459 19.8057)"/>
</clipPath>
</defs>
</svg>
