<svg width="46" height="38" viewBox="0 0 46 38" fill="none" xmlns="http://www.w3.org/2000/svg">
<path fill-rule="evenodd" clip-rule="evenodd" d="M42.8115 0.266781C42.3559 0.427093 40.1529 1.25401 37.916 2.10426C35.6791 2.95458 31.1885 4.65658 27.9367 5.88658C24.685 7.11651 21.8211 8.20208 21.5726 8.29887C21.0081 8.51868 13.7515 11.2731 9.48448 12.8872C7.72398 13.5532 5.89382 14.247 5.41745 14.4292C4.94108 14.6114 4.38186 14.8217 4.17475 14.8966C2.96902 15.3325 1.48049 15.9379 1.16695 16.1198C-0.268708 16.9528 -0.393053 18.0153 0.868102 18.6749C1.22118 18.8596 11.8437 22.2035 12.0772 22.2035C12.1323 22.2035 15.3694 20.2031 28.9535 11.775C32.8887 9.33337 36.3274 7.22343 36.595 7.08616C36.9893 6.88394 37.1519 6.84085 37.4534 6.85867C37.9062 6.88544 38.0511 7.04239 37.8775 7.31783C37.7861 7.46271 35.9642 9.10117 31.322 13.2131C31.1334 13.3802 30.4556 13.9838 29.8157 14.5544C28.38 15.8348 28.0969 16.0867 24.7708 19.0423C23.2987 20.3504 21.1793 22.2346 20.0609 23.2296L18.0274 25.0386L17.7372 29.1201C17.5775 31.365 17.4081 33.7509 17.3607 34.4222L17.2746 35.6428L17.7105 35.6037C17.997 35.578 18.2732 35.4918 18.5166 35.3525C18.7211 35.2353 20.143 33.9546 21.6906 32.4933C23.2326 31.0375 24.5281 29.8563 24.5694 29.8685C24.6298 29.8864 31.1489 34.5919 33.3218 36.186C35.0758 37.4729 35.3081 37.6175 35.9522 37.825C36.4513 37.9857 36.679 38.0223 36.9681 37.9885C37.8514 37.8849 38.4429 37.3046 38.8074 36.1842C38.8742 35.9792 39.1516 34.7713 39.4238 33.4999C39.696 32.2286 40.3568 29.1585 40.892 26.6774C43.1266 16.3202 44.2373 11.1664 44.9175 7.99912C45.3138 6.15367 45.7088 4.34177 45.7954 3.97268C46.0178 3.02385 46.0643 1.98786 45.9082 1.4563C45.6536 0.589195 45.0115 0.0709764 44.1142 0.00834281C43.7045 -0.0202151 43.5274 0.0149044 42.8115 0.266781Z" fill="white"/>
</svg>
