<svg width="49" height="29" viewBox="0 0 49 29" fill="none" xmlns="http://www.w3.org/2000/svg">
<path fill-rule="evenodd" clip-rule="evenodd" d="M0.256957 0.621074C-1.51755 2.72133 6.27477 17.5077 12.0735 23.043C15.1383 25.9689 20.266 28.4581 23.9613 28.8138C28.0678 29.209 28.8624 28.4773 29.1972 23.991C29.5752 18.9219 30.3418 18.9846 35.9108 24.5412L40.3791 29H44.2269C50.7268 29 50.6396 27.6309 43.6493 19.9347L39.6436 15.5236L42.7972 10.7236C46.8588 4.54052 47.7775 2.73897 47.5764 1.3502C47.4317 0.353486 47.0378 0.199986 44.2665 0.0599684C40.1758 -0.146428 38.886 0.207764 38.5106 1.64009C38.0111 3.54951 33.6147 10.5737 31.6184 12.6527C30.6005 13.7127 29.4611 14.4802 29.0868 14.3583C28.5932 14.1976 28.3323 12.2145 28.1412 7.17752L27.8772 0.218655L22.9011 0.0682651C16.2846 -0.131389 16.1573 -0.06501 17.8199 2.72082C19.0332 4.75522 19.1657 5.51753 19.1657 10.4757C19.1657 13.5047 18.9334 16.1153 18.6488 16.288C16.982 17.2997 13.102 12.1367 10.2124 5.06066L8.23513 0.218655L4.54303 0.0677468C1.92376 -0.0390813 0.678806 0.121679 0.256957 0.621074Z" fill="white"/>
</svg>
