<svg width="198" height="78" viewBox="0 0 198 78" fill="none" xmlns="http://www.w3.org/2000/svg">
<g clip-path="url(#clip0_1_494)">
<path d="M121.699 61.9408C123.712 58.7127 125.665 55.6999 127.477 52.608C128.203 51.3673 128.942 50.6448 130.516 50.8073C132.102 50.9742 133.72 50.8447 135.395 50.8447V77.879H129.194V61.2491C129.099 61.2161 129.004 61.1832 128.909 61.148C126.524 64.756 124.138 68.3639 121.613 72.1849C119.175 68.5045 116.836 64.9712 114.276 61.1063V77.8834H108.057V50.8557C110.151 50.8557 112.274 50.8139 114.39 50.8996C114.721 50.9127 115.101 51.4508 115.337 51.8241C117.44 55.1355 119.515 58.4624 121.697 61.943L121.699 61.9408Z" fill="#921915"/>
<path d="M141.618 50.8844H147.775V67.0861C147.861 67.1037 147.945 67.1213 148.031 67.1388C150.114 64.2863 152.202 61.436 154.278 58.5768C156.015 56.1854 157.721 53.7721 159.487 51.4027C159.705 51.1106 160.199 50.8822 160.572 50.8691C162.272 50.812 163.973 50.8449 165.783 50.8449V77.8924H159.679V61.2822C159.584 61.2427 159.489 61.2032 159.394 61.1637C158.584 62.2616 157.77 63.3574 156.962 64.4576C153.789 68.777 150.622 73.103 147.428 77.4093C147.236 77.6706 146.855 77.9385 146.552 77.9495C144.941 78.0022 143.326 77.9736 141.614 77.9736V50.8822L141.618 50.8844Z" fill="#921915"/>
<path d="M28.512 77.87V50.9434H49.1038V56.2861H34.5586V61.5037H47.2655V66.9738H34.5697V72.4526H49.0883V77.87H28.512Z" fill="#921915"/>
<path d="M172.297 50.9107H178.308V61.4534C179.496 61.7543 180.224 61.3876 180.952 60.384C182.137 58.7524 183.587 57.3075 184.929 55.7879C186.213 54.3298 187.478 52.8541 188.806 51.4377C189.093 51.1325 189.603 50.88 190.018 50.8712C192.286 50.8163 194.56 50.8448 197.17 50.8448C193.001 55.3421 189.012 59.6506 185.044 63.9327C189.354 68.6034 193.549 73.1512 198 77.9779C196.208 77.9779 194.716 77.9779 193.224 77.9779C189.504 77.9779 189.579 77.9186 187.275 75.1386C185.046 72.4485 182.68 69.8639 180.279 67.3232C179.917 66.9411 179.032 67.0509 178.328 66.9213V77.9077H172.295V50.9129L172.297 50.9107Z" fill="#921915"/>
<path d="M0 50.884H5.87013V61.3873C7.16553 61.7781 7.88275 61.4136 8.61983 60.421C9.84902 58.7631 11.3188 57.283 12.687 55.7283C13.9118 54.3361 15.1211 52.9307 16.3702 51.5604C16.6438 51.2596 17.0499 50.8906 17.403 50.8819C19.7863 50.8226 22.1741 50.8511 24.8399 50.8511C20.6757 55.3528 16.699 59.6503 12.7377 63.9324C17.0212 68.579 21.2031 73.1158 25.6741 77.9666C22.7876 77.9666 20.327 77.9842 17.8664 77.9425C17.5861 77.9381 17.2617 77.6373 17.0432 77.3935C15.1432 75.2744 13.2674 73.1334 11.3717 71.0099C10.4493 69.9778 9.39663 69.0423 8.59776 67.9246C7.91144 66.965 7.10154 66.9276 5.96723 67.0967V77.892H0V50.884Z" fill="#921915"/>
<path d="M104.221 77.9713C102.019 77.9713 100.112 78.0152 98.21 77.9317C97.8745 77.9164 97.4265 77.4333 97.2632 77.0621C96.5416 75.4218 95.906 73.7441 95.1932 71.9676C91.6425 71.9676 88.0233 71.9522 84.4041 71.9961C84.1283 71.9983 83.7266 72.3562 83.6074 72.6417C83.0138 74.0603 82.482 75.503 81.9545 76.948C81.6875 77.6792 81.2815 78.0349 80.423 77.9976C78.726 77.9252 77.0223 77.9757 75.0825 77.9757C75.8483 76.1333 76.5478 74.4248 77.2673 72.7251C79.633 67.1409 81.9987 61.5588 84.3798 55.9811C85.0353 54.4461 85.79 52.9551 86.4101 51.4069C86.6882 50.7086 87.092 50.5505 87.7783 50.5812C88.9546 50.6317 90.1418 50.6713 91.3137 50.5703C92.2869 50.4868 92.6907 50.9194 93.0328 51.7341C96.0782 58.9807 99.1523 66.2142 102.226 73.4476C102.838 74.8882 103.489 76.3133 104.221 77.9713ZM92.9401 66.4711C91.7837 63.6757 90.7002 61.0581 89.5482 58.2758C88.9016 59.8262 88.3499 61.1218 87.8181 62.4284C87.2862 63.7393 86.7742 65.0591 86.2159 66.4711H92.9401Z" fill="#921915"/>
<path d="M60.4625 70.011V77.8725H54.5217V50.8448C54.9807 50.8448 55.4398 50.8448 55.901 50.8448C59.5268 50.8448 63.1548 50.8031 66.7806 50.8558C70.8853 50.915 75.1047 53.3196 75.7954 57.9443C76.6936 63.9677 74.6744 68.4497 67.617 69.5894C65.3241 69.9605 62.9562 69.877 60.4625 70.011ZM60.5265 64.5387C62.6737 64.4025 64.6775 64.4113 66.6327 64.1105C68.087 63.8865 69.5877 62.4921 69.6804 60.7309C69.8106 58.2824 68.7116 57.0088 67.2087 56.7255C65.0372 56.3193 62.7863 56.3346 60.5287 56.1656V64.5365L60.5265 64.5387Z" fill="#921915"/>
<path d="M17.4714 1.69531H28.4701L46.0011 42.9637H33.7643L30.8226 35.5875H14.8806L11.9389 42.9637H0L17.4714 1.69531ZM27.4705 26.7489L22.8825 15.1587L18.2349 26.7489H27.4705Z" fill="black"/>
<path d="M50.011 1.98975H67.7163C78.0707 1.98975 84.7772 7.25782 84.7772 16.3315V16.4501C84.7772 26.1671 77.3049 31.2595 67.1293 31.2595H61.4224V42.9661H50.011V1.98975ZM66.8931 22.3593C70.8941 22.3593 73.4231 20.2512 73.4231 16.9749V16.8563C73.4231 13.345 70.8941 11.5311 66.8336 11.5311H61.4224V22.3593H66.8931Z" fill="black"/>
<path d="M99.6687 11.9396H87.3745V1.98975H123.434V11.9396H111.08V42.9639H99.6687V11.9396Z" fill="black"/>
<path d="M155.393 10.1763C155.662 9.9347 155.942 9.69974 156.203 9.4472C156.814 8.8499 157.414 8.23943 158.023 7.63994C159.438 6.24771 160.855 4.85768 162.274 3.46764C163.36 2.4048 164.445 1.34416 165.535 0.285716C165.641 0.182506 165.763 0.0990604 165.889 -0.00195312C166.983 1.08943 168.078 2.17423 169.166 3.26342C171.481 5.58234 173.793 7.90345 176.106 10.2246C177.865 11.9901 179.619 13.7622 181.376 15.53C183.168 17.3328 184.958 19.1357 186.754 20.932C186.913 21.0901 186.906 21.2021 186.761 21.3448C185.527 22.5724 184.291 23.7955 183.062 25.0274C182.649 25.4403 182.181 25.5962 181.579 25.5918C177.574 25.5654 173.566 25.5742 169.561 25.5808C168.667 25.5808 167.773 25.6138 166.879 25.6357C166.473 25.6467 166.275 25.8268 166.273 26.2264C166.266 27.9019 166.266 29.5774 166.273 31.2551C166.273 31.6153 166.451 31.7646 166.811 31.769C168.76 31.7909 170.71 31.8195 172.659 31.8261C173.681 31.8283 174.705 31.7888 175.727 31.769C175.824 31.769 175.921 31.769 176.077 31.769C175.971 31.8854 175.905 31.9666 175.832 32.0391C174.038 33.8266 172.246 35.6163 170.446 37.3994C168.879 38.9497 167.299 40.4891 165.732 42.0372C165.546 42.2195 165.454 42.2063 165.302 41.9911C165.083 41.6793 164.831 41.385 164.562 41.1127C162.889 39.4175 161.206 37.731 159.528 36.0401C158.059 34.56 156.593 33.0778 155.124 31.5977C153.685 30.1462 152.246 28.6947 150.807 27.2453C148.918 25.3437 147.025 23.442 145.138 21.5381C145.005 21.4063 144.882 21.2636 144.774 21.1121C144.608 20.8793 144.719 20.6926 144.897 20.5214C145.767 19.6781 146.652 18.8546 147.492 17.985C147.925 17.5371 148.32 17.0496 148.918 16.8278C149.298 16.6872 149.708 16.5555 150.108 16.5533C153.376 16.5313 156.644 16.5467 159.915 16.5379C161.067 16.5357 162.221 16.5006 163.373 16.483C163.766 16.4764 164.156 16.4962 164.549 16.4786C164.933 16.4611 165.138 16.2349 165.138 15.8528C165.14 14.2256 165.143 12.6006 165.138 10.9734C165.138 10.5584 164.865 10.2926 164.419 10.2904C161.828 10.2839 159.237 10.2882 156.646 10.2882C156.243 10.2882 155.836 10.2882 155.433 10.2882C155.422 10.2509 155.408 10.2158 155.397 10.1785L155.393 10.1763ZM166.047 17.8445C163.476 17.8445 160.906 17.8445 158.335 17.8445C158.244 17.8445 158.154 17.8379 158.065 17.8467C157.688 17.8906 157.481 18.0685 157.481 18.3781C157.476 20.0844 157.481 21.7906 157.481 23.4947C157.481 23.7472 157.617 23.9053 157.849 23.9668C158.019 24.0129 158.2 24.0261 158.374 24.0305C159.308 24.0568 160.239 24.0942 161.173 24.092C165.394 24.0788 169.616 24.0546 173.837 24.0327C173.915 24.0327 173.99 23.9975 174.067 23.9931C174.416 23.9756 174.519 23.7318 174.522 23.4529C174.53 21.8565 174.539 20.26 174.522 18.6636C174.513 17.9521 174.367 17.8467 173.645 17.8467C171.114 17.8467 168.583 17.8467 166.052 17.8467L166.047 17.8445Z" fill="#921915"/>
</g>
<defs>
<clipPath id="clip0_1_494">
<rect width="198" height="78" fill="white"/>
</clipPath>
</defs>
</svg>
